<svg width="1360" height="284" viewBox="0 0 1360 284" fill="none" xmlns="http://www.w3.org/2000/svg">
<path d="M55.6957 17.3316C62.6088 17.3316 68.7415 18.7464 74.0936 21.5761C79.4458 24.4057 83.9059 28.5323 87.474 33.9558C91.042 39.1435 93.7181 45.5102 95.5022 53.0559C97.3977 60.6017 98.3455 69.0906 98.3455 78.5228C98.3455 90.7846 96.6729 101.278 93.3279 110.003C89.9828 118.727 85.1881 125.448 78.944 130.164C72.8113 134.88 65.4522 137.474 56.8664 137.945L64.3929 131.579V139.714L58.539 133.347C67.9052 133.583 75.9892 136.295 82.7908 141.482C89.5925 146.434 94.8331 153.626 98.5127 163.059C102.192 172.491 104.032 183.927 104.032 197.368C104.032 208.215 103.029 218.119 101.022 227.079C99.0145 235.804 96.0597 243.232 92.1571 249.363C88.2545 255.494 83.4041 260.21 77.606 263.511C71.9193 266.812 65.3406 268.463 57.87 268.463H0V254.668H1.33803C4.46011 254.668 7.08043 253.843 9.19898 252.192C11.3175 250.542 12.3768 247.241 12.3768 242.289V43.5059C12.3768 38.554 11.3175 35.2527 9.19898 33.6021C7.08043 31.9515 4.46011 31.1262 1.33803 31.1262H0V17.3316H55.6957ZM34.1199 129.456H50.1763C55.4169 129.456 59.5983 127.57 62.7203 123.797C65.9539 120.024 68.2397 114.483 69.5778 107.173C71.0273 99.863 71.7521 91.2562 71.7521 81.3524C71.7521 70.2696 71.0273 61.3091 69.5778 54.4708C68.1282 47.3966 65.8982 42.091 62.8876 38.554C59.877 35.0169 55.9187 33.2484 51.0125 33.2484H39.1375V252.546H52.8523C58.316 252.546 62.7761 250.66 66.2327 246.887C69.8008 242.878 72.4211 236.747 74.0936 228.494C75.8777 220.005 76.7697 209.276 76.7697 196.307C76.7697 185.696 75.9334 176.617 74.2609 169.072C72.5883 161.29 69.9123 155.395 66.2327 151.386C62.6646 147.142 57.87 145.02 51.8488 145.02H34.1199V129.456Z" fill="#2C2C27"/>
<path d="M179.691 83.4747V129.456C178.911 128.749 177.963 128.277 176.848 128.042C175.733 127.57 174.562 127.216 173.335 126.98C172.109 126.745 170.882 126.627 169.656 126.627C167.203 126.627 164.917 127.216 162.798 128.395C160.68 129.574 158.673 131.461 156.777 134.055C154.993 136.413 153.376 139.478 151.927 143.251C150.477 147.024 149.195 151.622 148.08 157.046L147.244 145.02C149.028 132.758 151.091 121.911 153.432 112.479C155.885 103.046 158.784 95.6186 162.129 90.1951C165.475 84.7716 169.377 82.0598 173.837 82.0598C175.175 82.0598 176.346 82.1777 177.35 82.4135C178.353 82.6493 179.134 83.003 179.691 83.4747ZM115.298 268.463V255.022H115.466C118.365 255.022 120.762 254.433 122.657 253.254C124.553 251.839 125.501 248.773 125.501 244.057V112.125C125.501 109.295 125.166 107.173 124.497 105.758C123.94 104.108 123.048 102.811 121.821 101.867C120.595 100.924 118.978 100.099 116.971 99.3914L115.298 98.684V84.8895H149.251V140.421L150.923 138.299V251.131C150.923 252.075 151.425 252.9 152.429 253.607C153.544 254.079 154.938 254.433 156.61 254.668C158.283 254.904 159.955 255.022 161.628 255.022H164.471V268.463H115.298Z" fill="#2C2C27"/>
<path d="M210.888 53.0559C206.539 53.0559 203.027 50.6979 200.351 45.9818C197.786 41.2657 196.504 34.7811 196.504 26.528C196.504 18.2748 197.786 11.7902 200.351 7.07414C203.027 2.35805 206.539 0 210.888 0C215.237 0 218.693 2.35805 221.258 7.07414C223.934 11.7902 225.272 18.2748 225.272 26.528C225.272 34.7811 223.934 41.2657 221.258 45.9818C218.693 50.6979 215.237 53.0559 210.888 53.0559ZM223.934 84.8895V244.057C223.934 248.773 224.882 251.839 226.777 253.254C228.673 254.433 231.014 255.022 233.802 255.022H234.136V268.463H188.309V255.022H188.476C191.375 255.022 193.772 254.433 195.668 253.254C197.563 251.839 198.511 248.773 198.511 244.057V112.125C198.511 107.88 197.786 105.051 196.337 103.636C194.999 101.985 192.88 100.57 189.981 99.3914L188.309 98.684V84.8895H223.934Z" fill="#2C2C27"/>
<path d="M277.177 4.24448V244.057C277.177 248.773 278.125 251.839 280.02 253.254C281.916 254.433 284.313 255.022 287.212 255.022H287.379V268.463H241.552V255.022H241.886C244.785 255.022 247.183 254.433 249.078 253.254C250.974 251.839 251.921 248.773 251.921 244.057V31.1262C251.921 28.2965 251.587 26.1743 250.918 24.7594C250.36 23.1088 249.413 21.8119 248.075 20.8687C246.848 19.9254 245.231 19.1001 243.224 18.3927L241.552 17.6853V4.24448H277.177Z" fill="#2C2C27"/>
<path d="M329.607 4.24448V244.057C329.607 248.773 330.555 251.839 332.45 253.254C334.346 254.433 336.743 255.022 339.642 255.022H339.81V268.463H293.982V255.022H294.316C297.216 255.022 299.613 254.433 301.508 253.254C303.404 251.839 304.352 248.773 304.352 244.057V31.1262C304.352 28.2965 304.017 26.1743 303.348 24.7594C302.791 23.1088 301.843 21.8119 300.505 20.8687C299.278 19.9254 297.662 19.1001 295.654 18.3927L293.982 17.6853V4.24448H329.607Z" fill="#2C2C27"/>
<path d="M369.975 53.0559C365.627 53.0559 362.115 50.6979 359.438 45.9818C356.874 41.2657 355.592 34.7811 355.592 26.528C355.592 18.2748 356.874 11.7902 359.438 7.07414C362.115 2.35805 365.627 0 369.975 0C374.324 0 377.781 2.35805 380.345 7.07414C383.021 11.7902 384.359 18.2748 384.359 26.528C384.359 34.7811 383.021 41.2657 380.345 45.9818C377.781 50.6979 374.324 53.0559 369.975 53.0559ZM383.021 84.8895V244.057C383.021 248.773 383.969 251.839 385.865 253.254C387.76 254.433 390.102 255.022 392.889 255.022H393.224V268.463H347.396V255.022H347.563C350.462 255.022 352.86 254.433 354.755 253.254C356.651 251.839 357.599 248.773 357.599 244.057V112.125C357.599 107.88 356.874 105.051 355.424 103.636C354.086 101.985 351.968 100.57 349.069 99.3914L347.396 98.684V84.8895H383.021Z" fill="#2C2C27"/>
<path d="M458.509 159.168L458.342 173.316C453.882 174.259 449.868 175.674 446.3 177.56C442.731 179.211 439.665 181.333 437.101 183.927C434.536 186.521 432.362 189.586 430.578 193.124C428.905 196.661 427.679 200.787 426.898 205.503C426.118 209.984 425.727 215.053 425.727 220.713C425.727 227.787 426.173 233.564 427.065 238.044C428.069 242.524 429.463 245.944 431.247 248.302C433.142 250.424 435.261 251.485 437.602 251.485C440.724 251.485 443.456 249.952 445.798 246.887C448.139 243.821 450.202 239.577 451.986 234.153C453.882 228.494 455.499 222.127 456.837 215.053L459.345 224.25C457.784 233.918 455.61 242.407 452.823 249.717C450.146 256.791 446.801 262.332 442.787 266.341C438.885 270.114 434.257 272 428.905 272C423.553 272 418.87 270.114 414.856 266.341C410.842 262.568 407.664 257.144 405.322 250.07C403.092 242.76 401.977 233.918 401.977 223.542C401.977 213.874 403.204 205.503 405.657 198.429C408.11 191.119 411.678 184.988 416.361 180.036C421.156 175.085 427.065 170.958 434.09 167.657C441.226 164.355 449.366 161.526 458.509 159.168ZM456 268.463V234.153L454.328 234.861V131.932C454.328 123.679 453.826 117.077 452.823 112.125C451.819 106.937 450.202 103.164 447.972 100.806C445.854 98.4482 443.178 97.2692 439.944 97.2692C435.261 97.2692 431.358 99.2735 428.236 103.282C425.114 107.055 422.661 111.889 420.877 117.784C420.877 114.719 420.988 112.007 421.211 109.649C421.546 107.055 421.992 104.933 422.549 103.282C423.218 101.396 423.943 99.9809 424.724 99.0377C425.616 97.8587 426.564 97.0334 427.567 96.5618V139.714H407.998V103.282C409.559 100.688 411.901 97.7408 415.023 94.4395C418.145 90.9025 421.992 87.837 426.564 85.2432C431.247 82.6493 436.599 81.3524 442.62 81.3524C448.084 81.3524 453.046 82.6493 457.506 85.2432C461.966 87.6012 465.813 91.2562 469.046 96.2081C472.28 100.924 474.733 107.173 476.405 114.954C478.189 122.5 479.081 131.579 479.081 142.19V243.704C479.081 246.533 479.472 248.773 480.252 250.424C481.033 251.839 482.092 252.9 483.43 253.607C484.88 254.079 486.552 254.433 488.448 254.668L489.117 255.022V268.463H456Z" fill="#2C2C27"/>
<path d="M495.867 268.463V255.022H496.034C497.93 255.022 499.602 254.786 501.052 254.315C502.613 253.607 503.839 252.546 504.731 251.131C505.623 249.481 506.069 247.123 506.069 244.057V112.125C506.069 109.295 505.735 107.173 505.066 105.758C504.508 104.108 503.616 102.811 502.39 101.867C501.163 100.924 499.547 100.099 497.539 99.3914L495.867 98.684V84.8895H529.82V123.09L531.492 124.858V251.839C531.492 252.546 531.938 253.136 532.83 253.607C533.722 254.079 534.837 254.433 536.175 254.668C537.625 254.904 539.074 255.022 540.524 255.022H540.691V268.463H495.867ZM598.059 268.463H553.235V255.022C554.462 255.022 555.8 254.904 557.249 254.668C558.699 254.433 559.925 254.079 560.929 253.607C561.932 253.136 562.434 252.546 562.434 251.839V137.945C562.434 130.164 562.044 123.915 561.263 119.199C560.483 114.247 559.256 110.71 557.584 108.588C556.023 106.23 553.904 105.051 551.228 105.051C548.218 105.051 545.374 106.701 542.698 110.003C540.022 113.068 537.569 117.548 535.339 123.443C533.109 129.339 530.99 136.413 528.983 144.666L526.809 128.749C529.374 118.845 532.273 110.474 535.506 103.636C538.74 96.5618 542.364 91.1383 546.378 87.3654C550.503 83.3567 555.131 81.3524 560.26 81.3524C565.946 81.3524 570.853 83.5925 574.978 88.0728C579.104 92.5531 582.282 99.2735 584.512 108.234C586.742 116.959 587.857 127.924 587.857 141.129V244.057C587.857 247.123 588.247 249.481 589.028 251.131C589.92 252.546 591.09 253.607 592.54 254.315C594.101 254.786 595.829 255.022 597.725 255.022H598.059V268.463Z" fill="#2C2C27"/>
<path d="M602.29 100.453V86.3043H602.792C605.691 86.3043 608.2 85.7148 610.318 84.5358C612.437 83.3567 614.054 81.2345 615.169 78.1691C616.284 75.1036 616.953 70.977 617.176 65.7893L624.368 84.8895H660.495V100.453H602.29ZM639.421 217.883C639.421 227.079 639.867 234.389 640.759 239.813C641.762 245 643.212 248.655 645.107 250.778C647.003 252.9 649.233 253.961 651.797 253.961C654.139 253.961 656.258 253.371 658.153 252.192C660.049 250.778 661.331 249.952 662 249.717V265.633C661.108 266.812 659.826 267.873 658.153 268.817C656.481 269.76 654.585 270.467 652.467 270.939C650.348 271.646 648.062 272 645.609 272C639.588 272 634.18 270.114 629.385 266.341C624.591 262.568 620.8 256.319 618.012 247.594C615.336 238.634 613.998 226.961 613.998 212.577V88.0728L616.34 85.2432L618.514 37.4928H639.421V217.883Z" fill="#2C2C27"/>
<path d="M754.741 241.818V30.1823H742.745C737.782 30.1823 733.714 30.7811 730.543 31.9789C727.51 32.937 725.235 34.7336 723.718 37.3686C722.201 39.764 721.236 43.3571 720.823 48.148L716.893 86.9538H708V13.2946H834.365V86.9538H825.472L821.542 48.148C821.129 43.3571 820.164 39.764 818.647 37.3686C817.13 34.7336 814.786 32.937 811.615 31.9789C808.582 30.7811 804.583 30.1823 799.62 30.1823H787.624V241.818C787.624 246.848 788.934 250.202 791.554 251.878C794.311 253.555 797.552 254.394 801.274 254.394H804.377V268.407H737.988V254.394H741.091C744.951 254.394 748.191 253.555 750.811 251.878C753.431 250.202 754.741 246.848 754.741 241.818Z" fill="#A78BFA"/>
<path d="M925.767 80.4861V127.197C924.802 126.478 923.63 125.999 922.251 125.76C920.872 125.28 919.424 124.921 917.908 124.682C916.391 124.442 914.874 124.322 913.358 124.322C910.324 124.322 907.498 124.921 904.878 126.119C902.259 127.317 899.777 129.233 897.433 131.868C895.227 134.263 893.228 137.377 891.435 141.21C889.643 145.043 888.057 149.714 886.678 155.223L885.644 143.007C887.85 130.55 890.401 119.531 893.296 109.95C896.33 100.368 899.915 92.8225 904.051 87.3131C908.187 81.8036 913.013 79.0489 918.528 79.0489C920.183 79.0489 921.63 79.1687 922.871 79.4082C924.112 79.6477 925.077 80.007 925.767 80.4861ZM846.142 268.407V254.753H846.349C849.934 254.753 852.898 254.154 855.242 252.956C857.586 251.519 858.758 248.405 858.758 243.614V109.59C858.758 106.716 858.344 104.56 857.517 103.123C856.828 101.446 855.725 100.129 854.208 99.1704C852.691 98.2122 850.692 97.3738 848.21 96.6552L846.142 95.9366V81.9234H888.126V138.336L890.194 136.18V250.801C890.194 251.759 890.815 252.597 892.056 253.316C893.434 253.795 895.158 254.154 897.226 254.394C899.294 254.633 901.362 254.753 903.43 254.753H906.946V268.407H846.142Z" fill="#A78BFA"/>
<path d="M1005.55 157.379L1005.35 171.752C999.831 172.71 994.867 174.147 990.455 176.063C986.043 177.74 982.251 179.896 979.08 182.531C975.909 185.166 973.22 188.28 971.014 191.873C968.946 195.466 967.429 199.658 966.464 204.449C965.499 209 965.017 214.151 965.017 219.9C965.017 227.086 965.568 232.955 966.671 237.506C967.912 242.057 969.635 245.531 971.842 247.926C974.185 250.082 976.805 251.16 979.701 251.16C983.561 251.16 986.939 249.603 989.835 246.489C992.73 243.375 995.281 239.063 997.487 233.554C999.831 227.804 1001.83 221.337 1003.48 214.151L1006.59 223.493C1004.66 233.314 1001.97 241.937 998.521 249.363C995.212 256.55 991.075 262.179 986.112 266.251C981.286 270.084 975.564 272 968.946 272C962.328 272 956.537 270.084 951.573 266.251C946.61 262.418 942.68 256.909 939.785 249.723C937.027 242.297 935.649 233.314 935.649 222.774C935.649 212.953 937.165 204.449 940.199 197.263C943.232 189.837 947.644 183.609 953.435 178.579C959.364 173.548 966.671 169.356 975.357 166.003C984.182 162.649 994.247 159.775 1005.55 157.379ZM1002.45 268.407V233.554L1000.38 234.272V129.712C1000.38 121.328 999.762 114.621 998.521 109.59C997.28 104.321 995.281 100.488 992.523 98.0925C989.904 95.697 986.594 94.4993 982.596 94.4993C976.805 94.4993 971.979 96.5354 968.119 100.608C964.258 104.44 961.225 109.351 959.019 115.339C959.019 112.225 959.157 109.471 959.433 107.075C959.846 104.44 960.398 102.284 961.087 100.608C961.914 98.6913 962.811 97.2541 963.776 96.2959C964.879 95.0982 966.051 94.2598 967.292 93.7807V137.617H943.094V100.608C945.024 97.9727 947.92 94.9784 951.78 91.6248C955.641 88.0317 960.398 84.9177 966.051 82.2827C971.842 79.6477 978.46 78.3302 985.905 78.3302C992.661 78.3302 998.797 79.6477 1004.31 82.2827C1009.83 84.6781 1014.58 88.391 1018.58 93.4214C1022.58 98.2122 1025.61 104.56 1027.68 112.465C1029.89 120.13 1030.99 129.353 1030.99 140.132V243.255C1030.99 246.129 1031.47 248.405 1032.44 250.082C1033.4 251.519 1034.71 252.597 1036.37 253.316C1038.16 253.795 1040.23 254.154 1042.57 254.394L1043.4 254.753V268.407H1002.45Z" fill="#A78BFA"/>
<path d="M1136.45 102.404C1136.45 100.967 1135.76 99.7693 1134.38 98.8111C1133 97.8529 1131.28 97.1343 1129.21 96.6552C1127.28 95.9366 1125.21 95.5773 1123.01 95.5773H1122.59V81.9234H1156.51V95.5773H1156.31C1154.65 95.5773 1153.07 96.0564 1151.55 97.0145C1150.17 97.9727 1148.86 99.6495 1147.62 102.045C1146.52 104.44 1145.55 107.554 1144.72 111.387L1111.43 268.407H1088.47L1054.14 107.435C1053.59 104.081 1052.76 101.686 1051.66 100.248C1050.69 98.5716 1049.52 97.3738 1048.14 96.6552C1046.76 95.9366 1045.18 95.5773 1043.38 95.5773H1043.18V81.9234H1098.6V95.5773H1098.19C1096.26 95.5773 1094.19 95.6971 1091.99 95.9366C1089.78 96.1761 1087.92 96.5354 1086.4 97.0145C1084.89 97.2541 1084.13 97.8529 1084.13 98.8111L1113.29 241.099L1106.46 247.207L1136.45 102.404Z" fill="#A78BFA"/>
<path d="M1191.67 176.423C1191.67 189.598 1192.36 201.096 1193.74 210.917C1195.25 220.738 1197.32 228.882 1199.94 235.35C1202.7 241.818 1206.01 246.728 1209.87 250.082C1213.87 253.196 1218.42 254.753 1223.52 254.753C1228.9 254.753 1233.58 253.076 1237.58 249.723C1241.72 246.369 1245.3 241.937 1248.34 236.428C1251.37 230.679 1253.92 224.331 1255.99 217.384L1263.64 227.445C1261.16 236.548 1257.78 244.453 1253.51 251.16C1249.23 257.867 1244.2 263.017 1238.41 266.61C1232.76 270.203 1226.21 272 1218.76 272C1207.32 272 1197.18 268.167 1188.36 260.502C1179.54 252.597 1172.64 241.458 1167.68 227.086C1162.72 212.713 1160.23 195.706 1160.23 176.063C1160.23 156.421 1162.58 139.294 1167.27 124.682C1172.09 110.07 1178.64 98.6913 1186.91 90.5469C1195.32 82.4025 1204.7 78.3302 1215.04 78.3302C1223.17 78.3302 1230.28 80.4861 1236.34 84.7979C1242.55 88.8701 1247.79 94.9784 1252.06 103.123C1256.47 111.267 1259.78 121.328 1261.99 133.305C1264.19 145.282 1265.3 159.176 1265.3 174.985H1179.47L1179.26 159.535H1240.89L1235.93 163.847C1235.79 151.151 1235.31 140.491 1234.48 131.868C1233.65 123.005 1232.41 115.819 1230.76 110.309C1229.1 104.8 1226.97 100.847 1224.35 98.4518C1221.87 95.8168 1218.97 94.4993 1215.66 94.4993C1212.08 94.4993 1208.77 96.1761 1205.73 99.5297C1202.84 102.644 1200.36 107.554 1198.29 114.262C1196.22 120.729 1194.57 129.113 1193.32 139.413C1192.22 149.714 1191.67 162.05 1191.67 176.423Z" fill="#A78BFA"/>
<path d="M1320.38 0V243.614C1320.38 248.405 1321.56 251.519 1323.9 252.956C1326.24 254.154 1329.21 254.753 1332.79 254.753H1333V268.407H1276.33V254.753H1276.75C1280.33 254.753 1283.3 254.154 1285.64 252.956C1287.98 251.519 1289.15 248.405 1289.15 243.614V27.3078C1289.15 24.4333 1288.74 22.2774 1287.91 20.8402C1287.22 19.1634 1286.05 17.8459 1284.4 16.8877C1282.88 15.9295 1280.88 15.0911 1278.4 14.3725L1276.33 13.6539V0H1320.38Z" fill="#A78BFA"/>
</svg>
